<?xml version="1.0" encoding="utf-8"?>
<!-- Generator: Adobe Illustrator 24.1.2, SVG Export Plug-In . SVG Version: 6.00 Build 0)  -->
<svg version="1.1" id="Layer_1" xmlns="http://www.w3.org/2000/svg" xmlns:xlink="http://www.w3.org/1999/xlink" x="0px" y="0px"
	 viewBox="0 0 85 85" style="enable-background:new 0 0 85 85;" xml:space="preserve">
<style type="text/css">
	.st0{fill:#FFFFFF;}
	.st1{fill:#7A7A7A;}
	.st2{fill:#030303;}
</style>
<g>
	<path class="st0" d="M42.5,0C66,0,85,19,85,42.5S66,85,42.5,85S0,66,0,42.5S19,0,42.5,0z"/>
</g>
<g>
	<path class="st1" d="M46,33.7c1.2,2.3,2.4,4.6,3.6,6.9c0.9,1.7,1.8,3.4,2.7,5.1c0.2,0.3,0.1,0.4-0.2,0.4c-0.9,0-1.7,0-2.6,0
		c-0.3,0-0.4-0.1-0.6-0.3c-2-3.8-3.9-7.6-5.9-11.4C43,34.1,42.8,34,42.5,34c-1.9,0-3.9,0-5.8,0c-0.3,0-0.4,0.1-0.4,0.4
		c0,3.8,0,7.5,0,11.3c0,0.4-0.1,0.5-0.4,0.5c-0.7,0-1.4,0-2,0c-0.4,0-0.4-0.1-0.4-0.5c0-8,0-16.1,0-24.1c0-0.9,0-1.8,0-2.7
		c0-0.3,0.1-0.3,0.3-0.3c3.6,0,7.2,0,10.7,0c1.4,0,2.8,0.4,4.1,1.1c2,1.1,3.1,2.9,3.4,5.1c0.2,1.3,0.2,2.6-0.2,3.9
		c-0.8,2.7-2.6,4.2-5.2,4.9c-0.1,0-0.2,0.1-0.3,0.1C46.1,33.7,46.1,33.7,46,33.7z M36.3,26.3c0,1.6,0,3.2,0,4.8
		c0,0.4,0.1,0.4,0.5,0.4c2.2,0,4.3,0,6.5,0c0.6,0,1.2,0,1.7-0.1c1.8-0.3,3.1-1.2,3.7-3c0.4-1.2,0.4-2.4,0.2-3.6
		c-0.3-1.5-1.2-2.5-2.6-3.1c-0.9-0.4-1.8-0.5-2.8-0.5c-2.3,0-4.6,0-6.9,0c-0.3,0-0.4,0.1-0.4,0.4C36.3,23.1,36.3,24.7,36.3,26.3z"/>
	<path class="st1" d="M64.1,31.7c0.7-1.4,1.3-2.7,2-4c1.5-3,2.9-5.9,4.4-8.9c0.1-0.3,0.3-0.4,0.6-0.4c0.8,0,1.6,0,2.4,0
		c0.3,0,0.4,0.1,0.2,0.4c-2.1,4-4.1,8-6.2,12c-0.6,1.1-1.2,2.3-1.8,3.4c-0.1,0.2-0.1,0.4-0.1,0.6c0,3.6,0,7.2,0,10.8
		c0,0.4-0.1,0.5-0.5,0.4c-0.7,0-1.4,0-2,0c-0.3,0-0.4-0.1-0.4-0.4c0-3.6,0-7.2,0-10.7c0-0.3-0.1-0.6-0.2-0.9
		C59.8,29,57.2,24,54.6,18.9c-0.1-0.1-0.1-0.3-0.2-0.4c0.6,0,1.2,0,1.7,0c0.2,0,0.3,0,0.5,0c0.8-0.2,1.1,0.2,1.4,0.9
		c1.9,4,3.9,8,5.9,12C64,31.5,64,31.5,64.1,31.7z"/>
	<path class="st1" d="M19,33.6c0-4,0-8.1,0-12.1c0-0.4-0.1-0.4-0.4-0.4c-2.4,0-4.7,0-7.1,0c-0.3,0-0.4-0.1-0.4-0.4
		c0-0.6,0-1.3,0-1.9c0-0.2,0.1-0.4,0.3-0.3c0.3,0,0.7,0,1,0c5.6,0,11.3,0,16.9,0c0.4,0,0.5,0.1,0.4,0.5c0,0.6,0,1.2,0,1.8
		c0,0.3-0.1,0.4-0.4,0.4c-2.3,0-4.7,0-7,0c-0.4,0-0.5,0.1-0.5,0.5c0,8,0,16,0,24c0,0.6,0.1,0.5-0.5,0.5c-0.7,0-1.3,0-2,0
		c-0.3,0-0.4-0.1-0.4-0.4C19,41.7,19,37.6,19,33.6z"/>
	<path class="st2" d="M12.9,60.7c0-2.2,0-4.5,0-6.7c0-0.3,0.1-0.4,0.4-0.4c2.6,0,5.3,0,7.9,0c0.3,0,0.4,0.1,0.4,0.4
		c0,0.3,0.1,0.8-0.1,0.9c-0.2,0.2-0.6,0.1-0.9,0.1c-1.9,0-3.8,0-5.7,0c-0.3,0-0.4,0.1-0.4,0.4c0,1.4,0,2.8,0,4.2
		c0,0.3,0.1,0.3,0.3,0.3c1.8,0,3.6,0,5.4,0c0.3,0,0.4,0.1,0.4,0.4c0,0.3,0.1,0.7-0.1,0.9c-0.2,0.2-0.6,0.1-0.9,0.1
		c-1.6,0-3.1,0-4.7,0c-0.3,0-0.4,0.1-0.4,0.4c0,1.5,0,3,0,4.5c0,0.3,0.1,0.3,0.3,0.3c2.1,0,4.3,0,6.4,0c0.3,0,0.4,0.1,0.4,0.4
		c0,0.3,0.1,0.8-0.1,0.9c-0.2,0.2-0.6,0.1-0.9,0.1c-2.4,0-4.8,0-7.2,0c-0.3,0-0.4-0.1-0.4-0.4C12.9,65.2,12.9,63,12.9,60.7z"/>
	<path class="st2" d="M28,67.9c-0.9,0-1.8-0.1-2.6-0.5c-1.4-0.7-2-1.9-2.2-3.4c0-0.1,0-0.2,0.2-0.2c0.1,0,0.1,0,0.2,0
		c0.3,0,0.7-0.1,1,0c0.3,0.1,0.2,0.6,0.3,0.9c0.3,0.8,0.9,1.4,1.7,1.7c1,0.3,2,0.3,3,0c1.1-0.3,1.7-1.2,1.7-2.3c0-1.2-0.4-2-1.6-2.4
		c-0.8-0.3-1.6-0.4-2.4-0.5c-0.5-0.1-1-0.2-1.5-0.4c-1.8-0.7-2.6-2-2.3-4c0.2-1.9,1.7-3.2,3.7-3.4c1-0.1,2,0,3,0.4
		c1.5,0.6,2.1,1.9,2.4,3.4c0,0.1,0,0.2-0.2,0.2c-0.4,0-0.8,0-1.1,0c-0.1,0-0.2,0-0.2-0.2c0-0.1,0-0.2-0.1-0.3
		c-0.2-1.2-1-1.9-2.2-2.1c-0.8-0.1-1.6-0.1-2.4,0.2c-1,0.4-1.5,1.2-1.5,2.3c0,1,0.5,1.7,1.5,2.1c0.9,0.4,1.9,0.4,2.8,0.6
		c0.4,0.1,0.7,0.2,1.1,0.3c1.9,0.7,2.7,2,2.5,4c-0.2,2-1.5,3.2-3.5,3.5C28.9,67.9,28.5,67.9,28,67.9z"/>
	<path class="st2" d="M64,60.7c0-2.3,0-4.5,0-6.8c0-0.3,0-0.4,0.4-0.4c2.7,0,5.3,0,8,0c0.3,0,0.3,0.1,0.3,0.3c0,0.3,0.1,0.8-0.1,1
		c-0.2,0.2-0.6,0.1-1,0.1c-1.9,0-3.8,0-5.7,0c-0.3,0-0.4,0.1-0.4,0.4c0,1.4,0,2.8,0,4.2c0,0.3,0.1,0.4,0.4,0.4c1.8,0,3.6,0,5.4,0
		c0.3,0,0.4,0.1,0.3,0.3c0,0.3,0.1,0.8-0.1,1c-0.2,0.2-0.6,0.1-0.9,0.1c-1.6,0-3.1,0-4.7,0c-0.3,0-0.4,0.1-0.4,0.4c0,1.5,0,3,0,4.5
		c0,0.3,0.1,0.4,0.3,0.3c2.1,0,4.3,0,6.4,0c0.3,0,0.4,0.1,0.4,0.4c0,0.3,0.1,0.7-0.1,0.9c-0.2,0.2-0.6,0.1-0.9,0.1
		c-2.4,0-4.9,0-7.3,0c-0.3,0-0.4-0.1-0.4-0.4C64,65.2,64,63,64,60.7z"/>
	<path class="st2" d="M53.9,67.8c-0.5,0-0.9,0-1.3,0c-0.2,0-0.3-0.1-0.4-0.3c-0.3-1-0.7-1.9-1-2.8c-0.1-0.2-0.2-0.3-0.4-0.3
		c-1.8,0-3.6,0-5.4,0c-0.3,0-0.4,0.1-0.4,0.3c-0.3,1-0.7,1.9-1,2.8c-0.1,0.2-0.2,0.3-0.4,0.3c-0.4,0-0.8,0-1.3,0
		c0.3-0.9,0.7-1.8,1-2.7c1.4-3.7,2.7-7.4,4.1-11.2c0.1-0.3,0.2-0.3,0.5-0.3c0.9,0,0.9,0,1.2,0.9c1.6,4.3,3.2,8.7,4.7,13
		C53.8,67.6,53.8,67.7,53.9,67.8z M48.1,55.7c-0.9,2.5-1.7,4.9-2.6,7.4c1.7,0,3.4,0,5.1,0C49.8,60.7,49,58.2,48.1,55.7z"/>
	<path class="st2" d="M56.7,61.4c0-2,0-4,0-6c0-0.3-0.1-0.4-0.4-0.4c-1.1,0-2.2,0-3.3,0c-0.3,0-0.4,0-0.3-0.3c0-0.3-0.1-0.8,0.1-1
		c0.2-0.2,0.6-0.1,0.9-0.1c2.7,0,5.5,0,8.2,0c0.3,0,0.4,0.1,0.4,0.4c0,0.3,0.1,0.7-0.1,0.9C62,55.1,61.5,55,61.2,55
		c-0.9,0-1.7,0-2.6,0c-0.4,0-0.5,0.1-0.5,0.5c0,4,0,8,0,11.9c0,0.4-0.1,0.5-0.5,0.4c-0.2,0-0.5,0-0.7,0c-0.3,0-0.3-0.1-0.3-0.3
		C56.7,65.5,56.7,63.4,56.7,61.4z"/>
	<path class="st2" d="M39.5,61.4c0,2,0,4,0,6c0,0.3-0.1,0.4-0.4,0.4c-0.2,0-0.5,0-0.7,0c-0.3,0-0.4-0.1-0.4-0.4c0-4,0-8,0-12
		c0-0.4-0.1-0.5-0.5-0.5c-1.1,0-2.2,0-3.3,0c-0.2,0-0.3-0.1-0.3-0.3c0-0.3-0.1-0.8,0.1-1c0.2-0.2,0.6-0.1,1-0.1c2.7,0,5.5,0,8.2,0
		c0.3,0,0.4,0,0.4,0.4c0,0.3,0.1,0.7-0.1,0.9c-0.2,0.2-0.6,0.1-0.9,0.1c-0.9,0-1.7,0-2.6,0c-0.4,0-0.5,0.1-0.5,0.5
		C39.5,57.5,39.5,59.4,39.5,61.4z"/>
</g>
</svg>
